<mxfile host="app.diagrams.net" modified="2021-06-29T02:23:26.125Z" agent="5.0 (Windows NT 10.0; Win64; x64) AppleWebKit/537.36 (KHTML, like Gecko) Chrome/90.0.4430.212 Safari/537.36" etag="FQkHir9YsYfRUJKtkm6x" version="14.8.2" type="github">
  <diagram id="obgGVPXsm22ozdmGhFrW" name="Page-1">
    <mxGraphModel dx="1422" dy="794" grid="1" gridSize="10" guides="1" tooltips="1" connect="1" arrows="1" fold="1" page="1" pageScale="1" pageWidth="827" pageHeight="1169" math="0" shadow="0">
      <root>
        <mxCell id="0" />
        <mxCell id="1" parent="0" />
        <mxCell id="2ziKievKxFcIbridoAFm-7" value="StoreNode" style="swimlane;childLayout=stackLayout;horizontal=1;startSize=30;horizontalStack=0;rounded=1;fontSize=14;fontStyle=0;strokeWidth=2;resizeParent=0;resizeLast=1;shadow=0;dashed=0;align=center;" vertex="1" parent="1">
          <mxGeometry x="100" y="60" width="160" height="100" as="geometry" />
        </mxCell>
        <mxCell id="2ziKievKxFcIbridoAFm-8" value="+id&#xa;+path&#xa;+parentId&#xa;+childrenIds" style="align=left;strokeColor=none;fillColor=none;spacingLeft=4;fontSize=12;verticalAlign=top;resizable=0;rotatable=0;part=1;" vertex="1" parent="2ziKievKxFcIbridoAFm-7">
          <mxGeometry y="30" width="160" height="70" as="geometry" />
        </mxCell>
        <mxCell id="2ziKievKxFcIbridoAFm-9" value="iRendererStore" style="swimlane;childLayout=stackLayout;horizontal=1;startSize=30;horizontalStack=0;rounded=1;fontSize=14;fontStyle=0;strokeWidth=2;resizeParent=0;resizeLast=1;shadow=0;dashed=0;align=center;" vertex="1" parent="1">
          <mxGeometry x="100" y="220" width="160" height="120" as="geometry" />
        </mxCell>
        <mxCell id="2ziKievKxFcIbridoAFm-10" value="+hasRemoteData&#xa;+data&#xa;+initedAt&#xa;+updateAt&#xa;+" style="align=left;strokeColor=none;fillColor=none;spacingLeft=4;fontSize=12;verticalAlign=top;resizable=0;rotatable=0;part=1;" vertex="1" parent="2ziKievKxFcIbridoAFm-9">
          <mxGeometry y="30" width="160" height="90" as="geometry" />
        </mxCell>
        <mxCell id="2ziKievKxFcIbridoAFm-11" value="" style="edgeStyle=orthogonalEdgeStyle;rounded=0;orthogonalLoop=1;jettySize=auto;html=1;" edge="1" parent="1" source="2ziKievKxFcIbridoAFm-10" target="2ziKievKxFcIbridoAFm-8">
          <mxGeometry relative="1" as="geometry" />
        </mxCell>
      </root>
    </mxGraphModel>
  </diagram>
</mxfile>
